<?xml version="1.0" encoding="UTF-8"?>
<svg width="24px" height="24px" viewBox="0 0 24 24" version="1.1" xmlns="http://www.w3.org/2000/svg" xmlns:xlink="http://www.w3.org/1999/xlink">
    <!-- Generator: Sketch 52.5 (67469) - http://www.bohemiancoding.com/sketch -->
    <title>Atoms/Icons/Tools/Circle</title>
    <desc>Created with Sketch.</desc>
    <defs>
        <path d="M18.2897751,6.78602275 C18.8924131,6.29464981 19.661797,6 20.5,6 C22.4329966,6 24,7.56700338 24,9.5 C24,10.338203 23.7053502,11.1075869 23.2139772,11.7102249 C23.719599,12.8712053 24,14.1528571 24,15.5 C24,20.7467051 19.7467051,25 14.5,25 C9.25329488,25 5,20.7467051 5,15.5 C5,10.2532949 9.25329488,6 14.5,6 C15.8471429,6 17.1287947,6.28040098 18.2897751,6.78602275 Z M17.1504228,8.4817586 C16.3263581,8.17039236 15.4330777,8 14.5,8 C10.3578644,8 7,11.3578644 7,15.5 C7,19.6421356 10.3578644,23 14.5,23 C18.6421356,23 22,19.6421356 22,15.5 C22,14.5669223 21.8296076,13.6736419 21.5182414,12.8495772 C21.1960383,12.9473968 20.8541622,13 20.5,13 C18.5670034,13 17,11.4329966 17,9.5 C17,9.14583778 17.0526032,8.80396169 17.1504228,8.4817586 Z M14.5,17 C13.6715729,17 13,16.3284271 13,15.5 C13,14.6715729 13.6715729,14 14.5,14 C15.3284271,14 16,14.6715729 16,15.5 C16,16.3284271 15.3284271,17 14.5,17 Z M20.5,11 C21.3284271,11 22,10.3284271 22,9.5 C22,8.67157288 21.3284271,8 20.5,8 C19.6715729,8 19,8.67157288 19,9.5 C19,10.3284271 19.6715729,11 20.5,11 Z" id="path-1"></path>
    </defs>
    <g id="Symbols" stroke="none" stroke-width="1" fill="none" fill-rule="evenodd">
        <g id="Atoms/Icons/Tools/Circle" transform="translate(-3.000000, -3.000000)">
            <mask id="mask-2" fill="white">
                <use xlink:href="#path-1"></use>
            </mask>
            <use id="Mask" fill="#5B5B5B" fill-rule="nonzero" xlink:href="#path-1"></use>
            <g id="Atoms/Color/Grey" mask="url(#mask-2)" fill="#5B5B5B">
                <rect id="Rectangle" x="0" y="0" width="30" height="30"></rect>
            </g>
        </g>
    </g>
</svg>