<svg width="24" height="24" viewBox="0 0 24 24" fill="none" xmlns="http://www.w3.org/2000/svg">
  <path d="M8.65 20.5L2.5 14.35C2.33333 14.1833 2.20833 14 2.125 13.8C2.04167 13.6 2 13.3917 2 13.175C2 12.9583 2.04167 12.75 2.125 12.55C2.20833 12.35 2.33333 12.1667 2.5 12L8.25 6.275L5.6 3.625L7.15 2L17.15 12C17.3167 12.1667 17.4375 12.35 17.5125 12.55C17.5875 12.75 17.625 12.9583 17.625 13.175C17.625 13.3917 17.5875 13.6 17.5125 13.8C17.4375 14 17.3167 14.1833 17.15 14.35L11 20.5C10.8333 20.6667 10.65 20.7917 10.45 20.875C10.25 20.9583 10.0417 21 9.825 21C9.60833 21 9.4 20.9583 9.2 20.875C9 20.7917 8.81667 20.6667 8.65 20.5ZM9.825 7.85L4.475 13.2H15.175L9.825 7.85ZM19.8 21C19.2 21 18.6917 20.7875 18.275 20.3625C17.8583 19.9375 17.65 19.4167 17.65 18.8C17.65 18.35 17.7625 17.925 17.9875 17.525C18.2125 17.125 18.4667 16.7333 18.75 16.35L19.8 15L20.9 16.35C21.1667 16.7333 21.4167 17.125 21.65 17.525C21.8833 17.925 22 18.35 22 18.8C22 19.4167 21.7833 19.9375 21.35 20.3625C20.9167 20.7875 20.4 21 19.8 21Z" fill="#000000"/>
</svg>
