<svg width="16" height="16" viewBox="0 0 16 16" fill="none" xmlns="http://www.w3.org/2000/svg">
  <path d="M14.5503 15.4894C15.0696 15.4894 15.4894 15.0696 15.4867 14.5531L15.4867 9.24978C15.4867 8.7305 15.0668 8.31065 14.5503 8.31341C14.0338 8.31618 13.6112 8.73326 13.6139 9.24978L13.6139 12.2881L3.99617 2.67037L7.03452 2.67037C7.55381 2.67037 7.97365 2.25053 7.97089 1.73401C7.96813 1.21749 7.55104 0.79488 7.03452 0.797642L1.73399 0.79488C1.2147 0.79488 0.794859 1.21472 0.797621 1.73124L0.797622 7.03454C0.797622 7.55383 1.21747 7.97367 1.73399 7.97091C2.2505 7.96815 2.67311 7.55106 2.67035 7.03454L2.67035 3.9962L12.2853 13.6112H9.24699C8.72771 13.6112 8.30787 14.031 8.31063 14.5476C8.31339 15.0641 8.73048 15.4867 9.24699 15.4839H14.5503V15.4894Z" fill="#CCC" />
</svg>
