<svg xmlns="http://www.w3.org/2000/svg" xmlns:xlink="http://www.w3.org/1999/xlink" width="24" height="24" viewBox="0 0 24 24">
  <defs>
    <path id="edit_anchor-a" d="M13.5,11 C11.5670034,11 10,9.43299662 10,7.5 C10,5.56700338 11.5670034,4 13.5,4 C15.4329966,4 17,5.56700338 17,7.5 C17,9.43299662 15.4329966,11 13.5,11 Z M13.5,9 C14.3284271,9 15,8.32842712 15,7.5 C15,6.67157288 14.3284271,6 13.5,6 C12.6715729,6 12,6.67157288 12,7.5 C12,8.32842712 12.6715729,9 13.5,9 Z M12.0002889,7.52973893 C12.0125983,8.16273672 12.4170197,8.6996643 12.9807111,8.90767966 L3,15 L3,13 L12.0002889,7.52973893 Z M14.2172722,6.18228472 L19.453125,3 L22.6589355,3 L14.989102,7.68173885 C14.9962971,7.62216459 15,7.56151472 15,7.5 C15,6.93138381 14.6836098,6.4366645 14.2172722,6.18228472 Z M23.4434042,19.2851736 L20.1282799,19.2851736 L21.8729983,23.5349525 C21.9945296,23.8295773 21.8556546,24.1599209 21.5778734,24.2849208 L20.0414675,24.9545142 C19.7550613,25.0795141 19.4338738,24.9366704 19.3123426,24.6509518 L17.6544367,20.6154541 L14.9461873,23.4010151 C14.5852811,23.7721711 14,23.4860463 14,22.9992653 L14,9.57183533 C14,9.05933561 14.6225311,8.809492 14.946156,9.17008555 L23.8340292,18.3120179 C24.1925291,18.6613615 23.9279979,19.2851736 23.4434042,19.2851736 Z"/>
  </defs>
  <g fill="none" fill-rule="evenodd" transform="translate(-3 -3)">
    <mask id="edit_anchor-b" fill="#fff">
      <use xlink:href="#edit_anchor-a"/>
    </mask>
    <use fill="#5B5B5B" fill-rule="nonzero" xlink:href="#edit_anchor-a"/>
    <g fill="#5B5B5B" mask="url(#edit_anchor-b)">
      <rect width="30" height="30"/>
    </g>
  </g>
</svg>
