<svg xmlns="http://www.w3.org/2000/svg" xmlns:xlink="http://www.w3.org/1999/xlink" width="24" height="24" viewBox="0 0 24 24">
  <defs>
    <path id="line-a" d="M9.16509725,19.4206892 L18.4206892,10.1650973 C18.1523681,9.66992914 18,9.10275831 18,8.5 C18,6.56700338 19.5670034,5 21.5,5 C23.4329966,5 25,6.56700338 25,8.5 C25,10.4329966 23.4329966,12 21.5,12 C20.8972417,12 20.3300709,11.8476319 19.8349027,11.5793108 L10.5793108,20.8349027 C10.8476319,21.3300709 11,21.8972417 11,22.5 C11,24.4329966 9.43299662,26 7.5,26 C5.56700338,26 4,24.4329966 4,22.5 C4,20.5670034 5.56700338,19 7.5,19 C8.10275831,19 8.66992914,19.1523681 9.16509725,19.4206892 Z M21.5,10 C22.3284271,10 23,9.32842712 23,8.5 C23,7.67157288 22.3284271,7 21.5,7 C20.6715729,7 20,7.67157288 20,8.5 C20,9.32842712 20.6715729,10 21.5,10 Z M7.5,24 C8.32842712,24 9,23.3284271 9,22.5 C9,21.6715729 8.32842712,21 7.5,21 C6.67157288,21 6,21.6715729 6,22.5 C6,23.3284271 6.67157288,24 7.5,24 Z"/>
  </defs>
  <g fill="none" fill-rule="evenodd" transform="translate(-3 -3)">
    <mask id="line-b" fill="#fff">
      <use xlink:href="#line-a"/>
    </mask>
    <use fill="#5B5B5B" fill-rule="nonzero" xlink:href="#line-a"/>
    <g fill="#5B5B5B" mask="url(#line-b)">
      <rect width="30" height="30"/>
    </g>
  </g>
</svg>
