<svg xmlns="http://www.w3.org/2000/svg" xmlns:xlink="http://www.w3.org/1999/xlink" width="24" height="24" viewBox="0 0 24 24">
  <defs>
    <path id="oval-a" d="M12.0000205,23.4878901 C9.77718361,22.7022361 7.95513628,21.0681334 6.92299596,18.9746994 C6.78433037,18.9914038 6.64316906,19 6.5,19 C4.56700338,19 3,17.4329966 3,15.5 C3,13.5670034 4.56700338,12 6.5,12 C6.50403823,12 6.50807485,12.0000068 6.51210988,12.0000205 C7.41596347,9.44276366 9.44276366,7.41596347 12.0000205,6.51210988 C12.0000068,6.50807485 12,6.50403823 12,6.5 C12,4.56700338 13.5670034,3 15.5,3 C17.4329966,3 19,4.56700338 19,6.5 C19,6.64316906 18.9914038,6.78433037 18.9746994,6.92299596 C21.0681334,7.95513628 22.7022361,9.77718361 23.4878901,12.0000205 C23.4919251,12.0000068 23.4959618,12 23.5,12 C25.4329966,12 27,13.5670034 27,15.5 C27,17.4329966 25.4329966,19 23.5,19 C23.3568309,19 23.2156696,18.9914038 23.077004,18.9746994 C22.2001465,20.7531818 20.7531818,22.2001465 18.9746994,23.077004 C18.9914038,23.2156696 19,23.3568309 19,23.5 C19,25.4329966 17.4329966,27 15.5,27 C13.5670034,27 12,25.4329966 12,23.5 C12,23.4959618 12.0000068,23.4919251 12.0000205,23.4878901 Z M12.4292457,21.8192084 C13.0239497,20.735008 14.1761397,20 15.5,20 C16.6764589,20 17.7173475,20.5804452 18.3519064,21.4705762 C19.6856587,20.778255 20.778255,19.6856587 21.4705762,18.3519064 C20.5804452,17.7173475 20,16.6764589 20,15.5 C20,14.1761397 20.735008,13.0239497 21.8192084,12.4292457 C21.1827139,10.741721 19.9377835,9.35261737 18.3519064,8.52942379 C17.7173475,9.41955478 16.6764589,10 15.5,10 C14.1761397,10 13.0239497,9.26499198 12.4292457,8.18079162 C10.4734361,8.91847687 8.91847687,10.4734361 8.18079162,12.4292457 C9.26499198,13.0239497 10,14.1761397 10,15.5 C10,16.6764589 9.41955478,17.7173475 8.52942379,18.3519064 C9.35261737,19.9377835 10.741721,21.1827139 12.4292457,21.8192084 Z M15.5,8 C16.3284271,8 17,7.32842712 17,6.5 C17,5.67157288 16.3284271,5 15.5,5 C14.6715729,5 14,5.67157288 14,6.5 C14,7.32842712 14.6715729,8 15.5,8 Z M6.5,17 C7.32842712,17 8,16.3284271 8,15.5 C8,14.6715729 7.32842712,14 6.5,14 C5.67157288,14 5,14.6715729 5,15.5 C5,16.3284271 5.67157288,17 6.5,17 Z M15.5,25 C16.3284271,25 17,24.3284271 17,23.5 C17,22.6715729 16.3284271,22 15.5,22 C14.6715729,22 14,22.6715729 14,23.5 C14,24.3284271 14.6715729,25 15.5,25 Z M23.5,17 C24.3284271,17 25,16.3284271 25,15.5 C25,14.6715729 24.3284271,14 23.5,14 C22.6715729,14 22,14.6715729 22,15.5 C22,16.3284271 22.6715729,17 23.5,17 Z"/>
  </defs>
  <g fill="none" fill-rule="evenodd" transform="translate(-3 -3)">
    <mask id="oval-b" fill="#fff">
      <use xlink:href="#oval-a"/>
    </mask>
    <use fill="#5B5B5B" fill-rule="nonzero" xlink:href="#oval-a"/>
    <g fill="#5B5B5B" mask="url(#oval-b)">
      <rect width="30" height="30"/>
    </g>
  </g>
</svg>
