<svg xmlns="http://www.w3.org/2000/svg" xmlns:xlink="http://www.w3.org/1999/xlink" width="24" height="24" viewBox="0 0 24 24">
  <defs>
    <path id="rectangle-a" d="M23,10.9645556 L23,19.0354444 C24.6961471,19.2780593 26,20.736764 26,22.5 C26,24.4329966 24.4329966,26 22.5,26 C20.736764,26 19.2780593,24.6961471 19.0354444,23 L10.9645556,23 C10.7219407,24.6961471 9.26323595,26 7.5,26 C5.56700338,26 4,24.4329966 4,22.5 C4,20.736764 5.30385293,19.2780593 7,19.0354444 L7,10.9645556 C5.30385293,10.7219407 4,9.26323595 4,7.5 C4,5.56700338 5.56700338,4 7.5,4 C9.26323595,4 10.7219407,5.30385293 10.9645556,7 L19.0354444,7 C19.2780593,5.30385293 20.736764,4 22.5,4 C24.4329966,4 26,5.56700338 26,7.5 C26,9.26323595 24.6961471,10.7219407 23,10.9645556 Z M21,10.6631844 C20.272154,10.3174225 19.6825775,9.72784598 19.3368156,9 L10.6631844,9 C10.3174225,9.72784598 9.72784598,10.3174225 9,10.6631844 L9,19.3368156 C9.72784598,19.6825775 10.3174225,20.272154 10.6631844,21 L19.3368156,21 C19.6825775,20.272154 20.272154,19.6825775 21,19.3368156 L21,10.6631844 Z M7.5,9 C8.32842712,9 9,8.32842712 9,7.5 C9,6.67157288 8.32842712,6 7.5,6 C6.67157288,6 6,6.67157288 6,7.5 C6,8.32842712 6.67157288,9 7.5,9 Z M22.5,9 C23.3284271,9 24,8.32842712 24,7.5 C24,6.67157288 23.3284271,6 22.5,6 C21.6715729,6 21,6.67157288 21,7.5 C21,8.32842712 21.6715729,9 22.5,9 Z M22.5,24 C23.3284271,24 24,23.3284271 24,22.5 C24,21.6715729 23.3284271,21 22.5,21 C21.6715729,21 21,21.6715729 21,22.5 C21,23.3284271 21.6715729,24 22.5,24 Z M7.5,24 C8.32842712,24 9,23.3284271 9,22.5 C9,21.6715729 8.32842712,21 7.5,21 C6.67157288,21 6,21.6715729 6,22.5 C6,23.3284271 6.67157288,24 7.5,24 Z"/>
  </defs>
  <g fill="none" fill-rule="evenodd" transform="translate(-3 -3)">
    <mask id="rectangle-b" fill="#fff">
      <use xlink:href="#rectangle-a"/>
    </mask>
    <use fill="#5B5B5B" fill-rule="nonzero" xlink:href="#rectangle-a"/>
    <g fill="#5B5B5B" mask="url(#rectangle-b)">
      <rect width="30" height="30"/>
    </g>
  </g>
</svg>
