<?xml version="1.0" encoding="UTF-8"?>
<svg width="24px" height="24px" viewBox="0 0 24 24" version="1.1" xmlns="http://www.w3.org/2000/svg" xmlns:xlink="http://www.w3.org/1999/xlink">
    <!-- Generator: Sketch 52.5 (67469) - http://www.bohemiancoding.com/sketch -->
    <title>Atoms/Icons/Tools/Redo</title>
    <desc>Created with Sketch.</desc>
    <defs>
        <path d="M.33,16.82a17.12,17.12,0,0,1,3-6.19A16.14,16.14,0,0,1,8.79,5.85,16,16,0,0,1,15,4.08V.14A.14.14,0,0,1,15.2.05l3.32,3.53L22,7.28a.14.14,0,0,1,0,.19l-3.47,3.7L15.2,14.7a.14.14,0,0,1-.25-.09V10.82a15.48,15.48,0,0,0-3.92.43,14.94,14.94,0,0,0-4.92,2.16,14.28,14.28,0,0,0-3.92,4.18,14.91,14.91,0,0,0-1.74,4A.22.22,0,0,1,0,21.57,20.44,20.44,0,0,1,.33,16.82Z" id="path-1"></path>
    </defs>
    <g id="Symbols" stroke="none" stroke-width="1" fill="none" fill-rule="evenodd">
        <g id="Atoms/Icons/Tools/Redo" transform="translate(1.000000, 1.000000)">
            <mask id="mask-2" fill="white">
                <use xlink:href="#path-1"></use>
            </mask>
            <use id="Mask" fill="#fff" fill-rule="nonzero" transform="" xlink:href="#path-1"></use>
        </g>
    </g>
</svg>
