<svg xmlns="http://www.w3.org/2000/svg" xmlns:xlink="http://www.w3.org/1999/xlink" width="24" height="24" viewBox="0 0 24 24">
    <defs>
        <path id="rotate" d="M21.2,5.8c-0.1-0.2-0.2-0.3-0.3-0.5l-0.1-0.2c-0.1-0.2-0.2-0.3-0.3-0.5l-0.1-0.2c-0.1-0.2-0.2-0.3-0.4-0.5l-0.2-0.3l2.8-3.1L18,0.6l-4.6,0.1l0.5,4.5l0.5,4.5l3.2-3.6v0.1l0.1,0.2c0.1,0.1,0.1,0.2,0.2,0.2l0.1,0.2C18,7,18,7.1,18.1,7.2c0.3,0.7,0.6,1.4,0.7,2.1c0.2,1.4,0,2.9-0.6,4.2L18,13.9L17.9,14l-0.3,0.5l-0.1,0.2c-0.2,0.2-0.4,0.5-0.6,0.7c-0.5,0.5-1.1,1-1.7,1.3c-0.6,0.4-1.3,0.6-2.1,0.8c-0.7,0.1-1.5,0.2-2.2,0.1c-0.8-0.1-1.5-0.3-2.2-0.5c-0.7-0.3-1.3-0.7-1.9-1.2l-0.4-0.4l-0.2-0.3L6,15c-0.1-0.1-0.2-0.2-0.2-0.3l-0.3-0.4l-0.1-0.1l-0.2-0.4c0-0.1-0.1-0.1-0.1-0.2l-0.3-0.5l-0.1-0.2c-0.1-0.3-0.2-0.6-0.3-0.9c-0.2-0.8-0.3-1.6-0.3-2.4c0-0.2,0-0.3,0-0.5V8.9c0-0.2,0-0.3,0.1-0.4l0.1-0.6l0.2-0.6c0.3-0.8,0.7-1.5,1.2-2.2c0.5-0.7,1.1-1.3,1.8-1.8c0.2-0.1,0.3-0.4,0.1-0.6C7.5,2.6,7.4,2.5,7.3,2.5H7.1L7,2.6C6.1,3,5.4,3.6,4.7,4.2C4,4.9,3.5,5.7,3,6.6c-0.9,1.8-1.2,3.8-0.8,5.8c0.1,0.5,0.2,0.9,0.3,1.4l0.3,0.8C2.9,14.7,3,14.8,3,15l0.2,0.4c0,0.1,0.1,0.2,0.1,0.2l0.3,0.5c0.1,0.2,0.2,0.3,0.3,0.5l0.1,0.2c0.1,0.1,0.2,0.3,0.3,0.4L5,17.8c0.7,0.7,1.6,1.3,2.5,1.8c0.9,0.5,1.9,0.8,3,0.9c0.5,0.1,1,0.1,1.5,0.1c0.6,0,1.1,0,1.6-0.1c1-0.2,2.1-0.5,3-1l0.2-0.1c0.2-0.1,0.3-0.2,0.5-0.3l0.7-0.4c0.2-0.1,0.3-0.2,0.4-0.3l0.2-0.2c0.2-0.1,0.4-0.3,0.5-0.5l0.1-0.1c0.3-0.3,0.7-0.7,0.9-1l0.6-0.9l0.4-0.6c1-1.9,1.4-4.1,1.1-6.2C22,7.8,21.7,6.7,21.2,5.8z"/>
    </defs>
    <g fill="none" fill-rule="evenodd" transform="translate(0 2)">
        <mask id="rotate-b" fill="#fff">
            <use xlink:href="#rotate"/>
        </mask>
        <use fill="#5B5B5B" fill-rule="nonzero" xlink:href="#rotate"/>
        <g fill="#5B5B5B" mask="url(#rotate-b)">
            <rect width="30" height="30"/>
        </g>
    </g>
</svg>
