<svg xmlns="http://www.w3.org/2000/svg" xmlns:xlink="http://www.w3.org/1999/xlink" width="24" height="24" viewBox="0 0 24 24">
    <defs>
        <path id="rotate" d="M21.55,6.3c-.08-.18-.18-.35-.27-.52l-.13-.23c-.1-.17-.21-.34-.32-.5l-.14-.22c-.12-.17-.25-.34-.38-.5L20.08,4,23,.72,18.16.88,13.34,1l.48,4.8.49,4.8,3.36-3.83,0,.07.15.22a2.63,2.63,0,0,1,.16.26l.12.21a2.25,2.25,0,0,1,.16.31A7.59,7.59,0,0,1,19,10.06a7.35,7.35,0,0,1-.68,4.47l-.19.41-.07.09-.3.49-.15.2a6.73,6.73,0,0,1-.59.71,7.3,7.3,0,0,1-1.82,1.42,7.9,7.9,0,0,1-2.19.83,8.08,8.08,0,0,1-2.35.13,8.61,8.61,0,0,1-2.31-.58,8.69,8.69,0,0,1-2-1.25l-.46-.42-.26-.28-.17-.19a2.34,2.34,0,0,1-.25-.3l-.31-.42-.1-.15-.25-.42a.68.68,0,0,1-.11-.19l-.28-.55-.07-.18a8.06,8.06,0,0,1-.33-1,7.86,7.86,0,0,1-.29-2.51,3.88,3.88,0,0,1,0-.48l0-.28a2.72,2.72,0,0,1,.08-.47l.14-.62.2-.64a8.43,8.43,0,0,1,1.23-2.3A8.51,8.51,0,0,1,7,3.7a.48.48,0,0,0-.13-.85l-.22,0-.14.07A9.44,9.44,0,0,0,4.11,4.69,9.63,9.63,0,0,0,2.36,7.2a10,10,0,0,0-.86,6.14,9.48,9.48,0,0,0,.36,1.44l.32.85a2.49,2.49,0,0,0,.18.39l.24.47c0,.09.08.17.13.26l.32.49a3.87,3.87,0,0,0,.36.51l.15.19c.11.15.22.29.36.45l.55.58a10.7,10.7,0,0,0,2.67,1.88,10.88,10.88,0,0,0,3.14,1,10.27,10.27,0,0,0,1.57.11,11.32,11.32,0,0,0,1.74-.13,11.13,11.13,0,0,0,3.17-1.05l.22-.12c.17-.09.34-.18.51-.29l.69-.45c.16-.11.31-.24.46-.36l.18-.16a4.19,4.19,0,0,0,.54-.49l.09-.08a10,10,0,0,0,1-1.1l.65-.94.38-.68a11,11,0,0,0,1.11-6.58A11.27,11.27,0,0,0,21.55,6.3Z"/>
    </defs>
    <g fill="none" fill-rule="evenodd" transform="translate(0 1)">
        <mask id="rotate-b" fill="#fff">
            <use xlink:href="#rotate"/>
        </mask>
        <use fill="#5B5B5B" fill-rule="nonzero" xlink:href="#rotate"/>
        <g fill="#5B5B5B" mask="url(#rotate-b)">
            <rect width="30" height="30"/>
        </g>
    </g>
</svg>
