<?xml version="1.0" encoding="UTF-8"?>
<svg width="24px" height="24px" viewBox="0 0 24 24" version="1.1" xmlns="http://www.w3.org/2000/svg" xmlns:xlink="http://www.w3.org/1999/xlink">
    <!-- Generator: Sketch 52.5 (67469) - http://www.bohemiancoding.com/sketch -->
    <title>Atoms/Icons/Tools/Scissors</title>
    <desc>Created with Sketch.</desc>
    <defs>
        <path d="M12.9691574,13.4939435 L21.0317032,5.54167013 L23.4649499,5.67722957 L17.0470713,14.5106816 L27.5660336,17.1333535 L25.7891944,18.8012588 L14.5854951,17.8987506 L13.6487955,19.188007 C13.794639,19.2650958 13.9367985,19.3534417 14.0741377,19.4532245 C15.6379648,20.5894114 15.9846357,22.7782052 14.8484488,24.3420324 C13.7122619,25.9058595 11.5234681,26.2525304 9.95964096,25.1163435 C8.39581384,23.9801565 8.04914296,21.7913627 9.18532986,20.2275356 C9.74587276,19.4560145 10.5626188,18.9807475 11.4341218,18.8336407 L12.6805656,17.1180579 L12.5239724,16.3747216 L11.9506932,15.3012391 L9.89310646,14.7882251 C9.13093796,15.2357261 8.19977854,15.3966447 7.27445355,15.1659352 C5.39887519,14.698301 4.25751094,12.7987519 4.72514515,10.9231736 C5.19277935,9.04759519 7.09232846,7.90623094 8.96790682,8.37386515 C10.8434852,8.84149935 11.9848494,10.7410485 11.5172152,12.6166268 C11.4761464,12.7813449 11.4240335,12.9404001 11.3618627,13.0931999 L12.9691574,13.4939435 Z M7.75829735,13.2253438 C8.56211664,13.4257584 9.37620912,12.9366023 9.57662378,12.132783 C9.77703844,11.3289637 9.28788233,10.5148713 8.48406303,10.3144566 C7.68024373,10.1140419 6.86615126,10.603198 6.6657366,11.4070173 C6.46532194,12.2108366 6.95447805,13.0249291 7.75829735,13.2253438 Z M10.8033639,21.4031061 C10.3164266,22.0733177 10.4649998,23.0113722 11.1352115,23.4983095 C11.8054231,23.9852467 12.7434776,23.8366735 13.2304148,23.1664619 C13.7173521,22.4962502 13.5687788,21.5581957 12.8985672,21.0712585 C12.2283556,20.5843212 11.2903011,20.7328945 10.8033639,21.4031061 Z" id="path-1"></path>
    </defs>
    <g id="Symbols" stroke="none" stroke-width="1" fill="none" fill-rule="evenodd">
        <g id="Atoms/Icons/Tools/Scissors" transform="translate(-3.000000, -3.000000)">
            <mask id="mask-2" fill="white">
                <use xlink:href="#path-1"></use>
            </mask>
            <use id="Mask" fill="#5B5B5B" fill-rule="nonzero" transform="translate(16.093194, 15.663351) rotate(-32.000000) translate(-16.093194, -15.663351) " xlink:href="#path-1"></use>
        </g>
    </g>
</svg>