<svg xmlns="http://www.w3.org/2000/svg" xmlns:xlink="http://www.w3.org/1999/xlink" width="24" height="24" viewBox="0 0 24 24">
  <defs>
    <path id="polygon-a" d="M21.15,14.6846a3.4835,3.4835,0,0,0-1.7113-.1444L15.0836,7.67c.0422-.0778.0762-.16.1125-.2415.0138-.031.03-.06.0427-.0917a3.4729,3.4729,0,0,0,.1772-.5709c.0095-.0429.0168-.086.0247-.1294a3.5,3.5,0,1,0-6.8727,0c.0079.0434.0152.0865.0247.1294a3.4729,3.4729,0,0,0,.1772.5709c.0129.0313.0288.06.0426.0914.0363.0813.07.1639.1125.2418l-4.3636,6.86A3.501,3.501,0,1,0,7.14,19.5052h9.7159A3.499,3.499,0,1,0,21.15,14.6846ZM4.4778,19.4027a1.5,1.5,0,1,1,.93-1.9066A1.5,1.5,0,0,1,4.4778,19.4027ZM12.0044,4.5052a1.5,1.5,0,1,1-1.5,1.5A1.5,1.5,0,0,1,12.0044,4.5052ZM10.3393,9.0845c.0778.0422.1605.0763.2418.1126.0309.0137.06.03.0913.0425a3.4663,3.4663,0,0,0,.5709.1772c.0429.0095.086.0168.13.0247a3.1626,3.1626,0,0,0,1.2631,0c.0435-.008.0867-.0152.13-.0247a3.4652,3.4652,0,0,0,.5708-.1772c.0313-.0129.06-.0288.0913-.0425.0813-.0363.164-.07.2419-.1126l3.9716,6.3325a3.399,3.399,0,0,0-1.1063,2.2563H7.4654a3.3941,3.3941,0,0,0-1.1065-2.2658Zm11.09,9.3977a1.5,1.5,0,1,1-.93-1.9066A1.5,1.5,0,0,1,21.4288,18.4822Z"/>
  </defs>
  <g fill="none" fill-rule="evenodd">
    <mask id="polygon-b" fill="#fff">
      <use xlink:href="#polygon-a"/>
    </mask>
    <use fill="#5B5B5B" fill-rule="nonzero" xlink:href="#polygon-a"/>
    <g fill="#5B5B5B" mask="url(#polygon-b)">
      <rect width="30" height="30"/>
    </g>
  </g>
</svg>
