<svg xmlns="http://www.w3.org/2000/svg" width="28" height="28" viewBox="0 0 28 28">
  <path fill="#5B5B5B" fill-rule="evenodd" d="M19,9 L21.0354444,9 C21.2780593,7.30385293 22.736764,6 24.5,6 C26.4329966,6 28,7.56700338 28,9.5 C28,11.263236 26.6961471,12.7219407 25,12.9645556 L25,21.0354444 C26.6961471,21.2780593 28,22.736764 28,24.5 C28,26.4329966 26.4329966,28 24.5,28 C22.736764,28 21.2780593,26.6961471 21.0354444,25 L12.9645556,25 C12.7219407,26.6961471 11.263236,28 9.5,28 C7.56700338,28 6,26.4329966 6,24.5 C6,22.736764 7.30385293,21.2780593 9,21.0354444 L9,19 L6.9645556,19 C6.7219407,20.6961471 5.26323595,22 3.5,22 C1.56700338,22 0,20.4329966 0,18.5 C0,16.736764 1.30385293,15.2780593 3,15.0354444 L3,6.9645556 C1.30385293,6.7219407 0,5.26323595 0,3.5 C0,1.56700338 1.56700338,1.77635684e-15 3.5,1.77635684e-15 C5.26323595,1.77635684e-15 6.7219407,1.30385293 6.9645556,3 L15.0354444,3 C15.2780593,1.30385293 16.736764,1.77635684e-15 18.5,1.77635684e-15 C20.4329966,1.77635684e-15 22,1.56700338 22,3.5 C22,5.26323595 20.6961471,6.7219407 19,6.9645556 L19,9 Z M3.5,5 C4.32842712,5 5,4.32842712 5,3.5 C5,2.67157288 4.32842712,2 3.5,2 C2.67157288,2 2,2.67157288 2,3.5 C2,4.32842712 2.67157288,5 3.5,5 Z M18.5,5 C19.3284271,5 20,4.32842712 20,3.5 C20,2.67157288 19.3284271,2 18.5,2 C17.6715729,2 17,2.67157288 17,3.5 C17,4.32842712 17.6715729,5 18.5,5 Z M3.5,20 C4.32842712,20 5,19.3284271 5,18.5 C5,17.6715729 4.32842712,17 3.5,17 C2.67157288,17 2,17.6715729 2,18.5 C2,19.3284271 2.67157288,20 3.5,20 Z M24.5,11 C25.3284271,11 26,10.3284271 26,9.5 C26,8.67157288 25.3284271,8 24.5,8 C23.6715729,8 23,8.67157288 23,9.5 C23,10.3284271 23.6715729,11 24.5,11 Z M24.5,26 C25.3284271,26 26,25.3284271 26,24.5 C26,23.6715729 25.3284271,23 24.5,23 C23.6715729,23 23,23.6715729 23,24.5 C23,25.3284271 23.6715729,26 24.5,26 Z M9.5,26 C10.3284271,26 11,25.3284271 11,24.5 C11,23.6715729 10.3284271,23 9.5,23 C8.67157288,23 8,23.6715729 8,24.5 C8,25.3284271 8.67157288,26 9.5,26 Z M10,9 L10,10 L16,10 L16,9 L10,9 Z M9,10 L9,16 L10,16 L10,10 L9,10 Z M18,19 L18,18 L11,18 L11,19 L18,19 Z M19,18 L19,11 L18,11 L18,18 L19,18 Z"/>
</svg>
